<svg xmlns="http://www.w3.org/2000/svg" width="15" height="15" viewBox="0 0 15 15">
  <defs>
    <style>
      .cls-1 {
        fill: #6f737c;
        fill-rule: evenodd;
      }
    </style>
  </defs>
  <path id="Calendar_copy_2" data-name="Calendar copy 2" class="cls-1" d="M523.063,1401H509.938a0.938,0.938,0,0,1-.938-0.94v-11.72a0.936,0.936,0,0,1,.938-0.93h13.125a0.936,0.936,0,0,1,.937.93v11.72A0.938,0.938,0,0,1,523.063,1401Zm0-12.66H509.938v11.72h13.125v-11.72Zm-8.441.48a0.467,0.467,0,0,1-.469.46h0a0.467,0.467,0,0,1-.469-0.46v-2.35a0.469,0.469,0,0,1,.469-0.47h0a0.469,0.469,0,0,1,.469.47v2.35Zm4.687,0a0.467,0.467,0,0,1-.469.46h0a0.466,0.466,0,0,1-.468-0.46v-2.35a0.468,0.468,0,0,1,.468-0.47h0a0.469,0.469,0,0,1,.469.47v2.35Zm0.472,2.8h0.938a0.469,0.469,0,0,1,.469.47v0.94a0.469,0.469,0,0,1-.469.47h-0.938a0.468,0.468,0,0,1-.468-0.47v-0.94A0.468,0.468,0,0,1,519.781,1391.62Zm0,3.75h0.938a0.469,0.469,0,0,1,.469.47v0.94a0.469,0.469,0,0,1-.469.47h-0.938a0.468,0.468,0,0,1-.468-0.47v-0.94A0.468,0.468,0,0,1,519.781,1395.37Zm-3.75,0h0.938a0.469,0.469,0,0,1,.469.47v0.94a0.469,0.469,0,0,1-.469.47h-0.938a0.468,0.468,0,0,1-.468-0.47v-0.94A0.468,0.468,0,0,1,516.031,1395.37Zm0-3.75h0.938a0.469,0.469,0,0,1,.469.47v0.94a0.469,0.469,0,0,1-.469.47h-0.938a0.468,0.468,0,0,1-.468-0.47v-0.94A0.468,0.468,0,0,1,516.031,1391.62Zm-3.75,0h0.938a0.469,0.469,0,0,1,.469.47v0.94a0.469,0.469,0,0,1-.469.47h-0.938a0.468,0.468,0,0,1-.468-0.47v-0.94A0.468,0.468,0,0,1,512.281,1391.62Zm0,3.75h0.938a0.469,0.469,0,0,1,.469.47v0.94a0.469,0.469,0,0,1-.469.47h-0.938a0.468,0.468,0,0,1-.468-0.47v-0.94A0.468,0.468,0,0,1,512.281,1395.37Z" transform="translate(-509 -1386)"/>
</svg>
