<svg xmlns="http://www.w3.org/2000/svg" width="21.969" height="20.03" viewBox="0 0 21.969 20.03">
  <defs>
    <style>
      .cls-1 {
        fill: #d2d4d7;
        fill-rule: evenodd;
      }
    </style>
  </defs>
  <path id="Shape_8_copy_2" data-name="Shape 8 copy 2" class="cls-1" d="M768,1306.02l-0.891-4.96a2.589,2.589,0,0,1,.718-2.11l3.771-3.51c0.655-.61.451-1.2-0.455-1.33l-5.211-.72a2.8,2.8,0,0,1-1.879-1.31l-2.331-4.5c-0.405-.79-1.062-0.79-1.467,0l-2.331,4.5a2.8,2.8,0,0,1-1.88,1.31l-5.212.72c-0.9.13-1.109,0.72-.454,1.33l3.771,3.51a2.6,2.6,0,0,1,.719,2.11l-0.891,4.96c-0.154.86,0.379,1.23,1.188,0.82l4.66-2.34a2.935,2.935,0,0,1,2.325,0l4.66,2.34c0.811,0.41,1.344.04,1.19-.82h0Z" transform="translate(-750 -1287)"/>
</svg>
