<svg xmlns="http://www.w3.org/2000/svg" width="21.97" height="20.031" viewBox="0 0 21.97 20.031">
  <defs>
    <style>
      .cls-1 {
        fill: #feaf02;
        fill-rule: evenodd;
      }
    </style>
  </defs>
  <path id="Shape_8_copy_2" data-name="Shape 8 copy 2" class="cls-1" d="M1234,48.016l-0.89-4.954a2.6,2.6,0,0,1,.72-2.11l3.77-3.509c0.66-.61.45-1.207-0.46-1.331l-5.21-.724a2.788,2.788,0,0,1-1.87-1.3l-2.34-4.507c-0.4-.783-1.06-0.783-1.46,0l-2.33,4.507a2.807,2.807,0,0,1-1.88,1.3l-5.22.724c-0.9.124-1.1,0.721-.45,1.331l3.77,3.509a2.6,2.6,0,0,1,.72,2.11l-0.89,4.954c-0.16.861,0.38,1.23,1.19,0.824l4.66-2.339a2.911,2.911,0,0,1,2.32,0l4.66,2.339c0.81,0.406,1.35.037,1.19-.824h0Z" transform="translate(-1216 -29)"/>
</svg>
