<svg xmlns="http://www.w3.org/2000/svg" width="16" height="21" viewBox="0 0 16 21">
  <defs>
    <style>
      .cls-1 {
        fill: #7a7e8a;
        fill-rule: evenodd;
      }
    </style>
  </defs>
  <path id="Pointer" class="cls-1" d="M1286.07,2132.31c4.56,0,6.59,3.37,6.59,6.7,0,2.94-2.12,6.84-6.32,11.59a0.705,0.705,0,0,1-.09.07,0.572,0.572,0,0,1-.08-0.07l-0.35-.4c-2.74-3.09-6.49-7.32-6.49-11.19a6.814,6.814,0,0,1,6.74-6.7m0-1.31a8.152,8.152,0,0,0-8.07,8.01c0,4.55,4.29,9.2,7.18,12.47a1.624,1.624,0,0,0,1.05.52h0.05a1.656,1.656,0,0,0,1.05-.52c2.71-3.07,6.67-8.12,6.67-12.47s-2.89-8.01-7.93-8.01h0Zm-0.08,5.26a2.64,2.64,0,1,1,.03,5.28,2.7,2.7,0,0,1-2.7-2.65,2.655,2.655,0,0,1,2.67-2.63m0.03-1.28a3.936,3.936,0,1,0,4,3.93,3.965,3.965,0,0,0-4-3.93h0Z" transform="translate(-1278 -2131)"/>
</svg>
