<svg xmlns="http://www.w3.org/2000/svg" width="16" height="21" viewBox="0 0 16 21">
  <defs>
    <style>
      .cls-1 {
        fill: #2d3039;
        fill-rule: evenodd;
      }
    </style>
  </defs>
  <path id="выделить" class="cls-1" d="M761,827.062c-2.487,0-3.337-.862-3.435-0.962a0.626,0.626,0,0,1-.182-0.435v-1.112c0-.509-0.568-0.922-1.413-1.607A6.648,6.648,0,0,1,753,817.365c0-4.061,3.515-7.365,8-7.365s8,3.3,8,7.365a6.011,6.011,0,0,1-2.788,5.184c-0.963.761-1.6,1.229-1.6,2v1.112a0.631,0.631,0,0,1-.233.482A5.1,5.1,0,0,1,761,827.062Zm-2.166-1.658a4.636,4.636,0,0,0,2.154.359,4.794,4.794,0,0,0,2.178-.381v-0.829c0-1.409,1.11-2.214,2.095-2.992a4.8,4.8,0,0,0,2.292-4.2,6.574,6.574,0,0,0-13.106,0,5.406,5.406,0,0,0,2.49,4.6c0.929,0.753,1.9,1.464,1.9,2.584V825.4Zm-1.016-.343M761.026,831c-2.218,0-3.65-1.346-3.65-3.351v-1.9H758.8l0.023,1.9a2.18,2.18,0,0,0,4.351,0v-1.9h1.451v1.9A3.3,3.3,0,0,1,761.026,831Z" transform="translate(-753 -810)"/>
</svg>
