<svg xmlns="http://www.w3.org/2000/svg" width="21" height="15" viewBox="0 0 21 15">
  <defs>
    <style>
      .cls-1 {
        fill: #7a7e8a;
        fill-rule: evenodd;
      }
    </style>
  </defs>
  <path id="Envelope" class="cls-1" d="M1297.36,2206.36c0.36,0,.33-0.03.33,0.34v10.91c0,0.38.03,1.03-.33,1.03H1280.3a1.4,1.4,0,0,1-.99-1.03V2206.7c0-.37.63-0.34,0.99-0.34h16.73m0.33-1.36H1280.3c-1.09,0-2.3.57-2.3,1.7v10.91a2.631,2.631,0,0,0,2.3,2.39h17.06c1.09,0,1.64-1.26,1.64-2.39V2206.7a1.479,1.479,0,0,0-1.64-1.7h0Zm-8.86,10.29a0.6,0.6,0,0,1-.43-0.17l-9.84-8.18a0.69,0.69,0,0,1-.07-0.96,0.654,0.654,0,0,1,.93-0.07l9.41,7.8,9.41-7.8a0.654,0.654,0,0,1,.93.07,0.69,0.69,0,0,1-.07.96l-9.84,8.18A0.6,0.6,0,0,1,1288.5,2215.29Z" transform="translate(-1278 -2205)"/>
</svg>
