<svg xmlns="http://www.w3.org/2000/svg" width="16" height="20" viewBox="0 0 16 20">
  <defs>
    <style>
      .cls-1 {
        fill: #7a7e8a;
        fill-rule: evenodd;
      }
    </style>
  </defs>
  <path id="End_call" data-name="End call" class="cls-1" d="M1284.03,2168.12a0.433,0.433,0,0,1,.05.01c0.23,0.52,1.43,3.39,1.65,3.92a0.913,0.913,0,0,1-.19.34c-0.14.18-.57,0.68-1.18,1.38l-0.48.55,0.3,0.65a22.527,22.527,0,0,0,1.93,3.27,21.863,21.863,0,0,0,2.35,2.99l0.5,0.52,0.69-.23c0.67-.23,1.48-0.49,1.74-0.57a0.839,0.839,0,0,1,.38-0.04h0.01c0.38,0.35,2.67,2.58,3.07,2.99a0.349,0.349,0,0,1-.13.24,8.225,8.225,0,0,1-2.55,1.74c-2.1-.5-4.7-2.9-7.35-6.78s-3.93-7.16-3.62-9.26a8.089,8.089,0,0,1,2.57-1.69,0.4,0.4,0,0,1,.26-0.03m0.22-1.08a1.58,1.58,0,0,0-.95.11c-0.03.01-3.05,1.37-3.22,2.45-0.5,3.06,1.78,7.2,3.79,10.14s5.04,6.58,8.1,7.26l0.03,0.01c1.08,0.21,3.48-2.02,3.51-2.04a1.3,1.3,0,0,0,.21-1.82c-0.24-.24-2.87-2.81-3.19-3.1a1.117,1.117,0,0,0-.55-0.25,1.843,1.843,0,0,0-.92.06c-0.32.1-1.3,0.42-1.78,0.58a21.5,21.5,0,0,1-2.22-2.84,21.112,21.112,0,0,1-1.83-3.09c0.33-.38,1-1.15,1.21-1.41a1.483,1.483,0,0,0,.37-1.42c-0.15-.39-1.57-3.73-1.72-4.06a1.163,1.163,0,0,0-.84-0.58h0Z" transform="translate(-1280 -2167)"/>
</svg>
