<svg xmlns="http://www.w3.org/2000/svg" width="21.031" height="19" viewBox="0 0 21.031 19">
  <defs>
    <style>
      .cls-1 {
        fill: #2d3039;
        fill-rule: evenodd;
      }
    </style>
  </defs>
  <path id="premium" class="cls-1" d="M761.439,682.435a6.689,6.689,0,0,1-6.6-6.762v-4.037A0.647,0.647,0,0,1,755.5,671h11.87a0.648,0.648,0,0,1,.66.634v4.037A6.688,6.688,0,0,1,761.439,682.435Zm-5.276-10.166v3.4a5.279,5.279,0,1,0,10.55,0v-3.4h-10.55Zm5.269,15.8a0.647,0.647,0,0,1-.66-0.634V682.2a0.661,0.661,0,0,1,1.32,0v5.243A0.648,0.648,0,0,1,761.432,688.072Zm2.7,0.006H758.8a0.634,0.634,0,1,1,0-1.266h5.335A0.634,0.634,0,1,1,764.131,688.078ZM766.1,690h-9.28a0.634,0.634,0,1,1,0-1.267h9.28A0.634,0.634,0,1,1,766.1,690Zm1.419-12.028a0.634,0.634,0,1,1,0-1.267,3.185,3.185,0,0,0,2.536-.9,3.331,3.331,0,0,0,.613-2.266h-3.039a0.634,0.634,0,1,1,0-1.267h3.63a0.652,0.652,0,0,1,.646.506,4.911,4.911,0,0,1-.823,3.823A4.437,4.437,0,0,1,767.523,677.97Zm-12.07,0a4.44,4.44,0,0,1-3.564-1.373,4.915,4.915,0,0,1-.823-3.823,0.653,0.653,0,0,1,.646-0.506h3.63a0.634,0.634,0,1,1,0,1.267H752.3a3.338,3.338,0,0,0,.613,2.266,3.185,3.185,0,0,0,2.537.9A0.634,0.634,0,1,1,755.453,677.97Z" transform="translate(-750.969 -671)"/>
</svg>
