<svg xmlns="http://www.w3.org/2000/svg" width="23" height="23" viewBox="0 0 23 23">
  <defs>
    <style>
      .cls-1 {
        fill: #2d3039;
        fill-rule: evenodd;
      }
    </style>
  </defs>
  <path id="vip" class="cls-1" d="M756.388,412l-0.053,0a0.718,0.718,0,0,1-.622-0.473l-1.232-3.44-3.6.828a0.719,0.719,0,0,1-.79-1.046l4.331-7.914a0.718,0.718,0,1,1,1.258.691l-3.562,6.51,2.663-.612a0.715,0.715,0,0,1,.836.457l0.9,2.52,3.1-5.787a0.718,0.718,0,1,1,1.264.68l-3.863,7.209A0.716,0.716,0,0,1,756.388,412Zm10.224,0a0.717,0.717,0,0,1-.629-0.374l-3.881-7.09a0.718,0.718,0,0,1,1.259-.691l3.114,5.691L767.384,407a0.714,0.714,0,0,1,.836-0.457l2.676,0.615-3.453-6.4a0.718,0.718,0,1,1,1.262-.684l4.207,7.8a0.719,0.719,0,0,1-.061.777,0.711,0.711,0,0,1-.731.265l-3.6-.828-1.232,3.44a0.716,0.716,0,0,1-.619.473Zm-5.117-21.55a6.459,6.459,0,1,1-6.446,6.459,6.46,6.46,0,0,1,6.446-6.459m0-1.443a7.9,7.9,0,1,0,7.887,7.9A7.894,7.894,0,0,0,761.5,389h0Z" transform="translate(-750 -389)"/>
</svg>
